# xmcd
#
# Track frame offsets:
#	150
#	13850
#	30351
#	43341
#	55846
#	67481
#	78661
#	90892
#	103921
#	115659
#	126489
#	135942
#	148778
#	163806
#	174016
#
# Disc length: 2503 seconds
# Revision: 0
# Processed by: cddbd v1.5.2PL0 Copyright (c) Steve Scherf et al.
# Submitted via: dBpowerAMP V12.0
#
DISCID=ce09c50f
DTITLE=The Gibson Brothers - Brotherhood
DYEAR=2015
DGENRE=Country
TTITLE0=Bye Bye Love
TTITLE1=The Sweetest Gift
TTITLE2=An Angel With Blue Eyes
TTITLE3=Each Season Changes You
TTITLE4=I Have Found the Way
TTITLE5=How Mountain Girls Can Love
TTITLE6=It'll Be Her
TTITLE7=What a Wonderful Savior Is He
TTITLE8=Long Gone
TTITLE9=Eastbound Train
TTITLE10=Sweet Little Miss Blue Eyes
TTITLE11=Seven Year Blues
TTITLE12=Long Time Gone
TTITLE13=I'm Troubled I'm Troubled
TTITLE14=Crying in the Rain
EXTD=
EXTT0=
EXTT1=
EXTT2=
EXTT3=
EXTT4=
EXTT5=
EXTT6=
EXTT7=
EXTT8=
EXTT9=
EXTT10=
EXTT11=
EXTT12=
EXTT13=
EXTT14=
PLAYORDER=
